<svg width="400" height="400" viewBox="0 0 400 400" fill="none" xmlns="http://www.w3.org/2000/svg">
<path d="M80 107C80 104.239 82.2386 102 85 102H91C124.137 102 151 128.863 151 162V288C151 293.523 146.523 298 141 298H90C84.4772 298 80 293.523 80 288V107Z" fill="#43A124"/>
<path d="M235 293C235 295.761 232.761 298 230 298H224C190.863 298 164 271.137 164 238V112C164 106.477 168.477 102 174 102H175C208.137 102 235 128.863 235 162V293Z" fill="#43A124"/>
<path d="M249 107C249 104.239 251.239 102 254 102H260C293.137 102 320 128.863 320 162V288C320 293.523 315.523 298 310 298H259C253.477 298 249 293.523 249 288V107Z" fill="#43A124"/>
</svg>
